<?xml version="1.0" encoding="UTF-8"?>
<svg width="129px" height="60px" viewBox="0 0 129 60" version="1.1" xmlns="http://www.w3.org/2000/svg" xmlns:xlink="http://www.w3.org/1999/xlink">
    <!-- Generator: Sketch 51.3 (57544) - http://www.bohemiancoding.com/sketch -->
    <title>Brand / Eastpak</title>
    <desc>Created with Sketch.</desc>
    <defs>
        <polygon id="path-1" points="0 0.289655172 108.99947 0.289655172 108.99947 39 0 39"></polygon>
        <polygon id="path-3" points="0 39 109 39 109 0.289655172 0 0.289655172"></polygon>
    </defs>
    <g id="Brand-/-Eastpak" stroke="none" stroke-width="1" fill="none" fill-rule="evenodd">
        <g id="Group-27" transform="translate(10.000000, 11.000000)">
            <polygon id="Fill-1" fill="#003B44" points="21.8663844 14 21.8809366 16.0536979 15.7041937 16.0536979 15.7041937 18.3535115 21.3769017 18.3535115 21.3914539 20.5576134 15.7041937 20.5576134 15.7041937 22.8669981 22 22.8669981 21.9775103 25 12.0198439 25 12 14"></polygon>
            <path d="M29.7082228,16.1589807 L31.3169761,20.5671846 L31.3169761,20.5712865 L31.3169761,20.5671846 L28.1578249,20.5671846 L29.7082228,16.1589807 Z M27.8527851,14 L23,25 L26.4774536,25 L27.3355438,22.8669981 L32.2997347,22.8669981 L33.1697613,25 L37,25 L32.1100796,14 L27.8527851,14 Z" id="Fill-2" fill="#003B44"></path>
            <g id="Group-26">
                <path d="M41.15404,21.6238621 C41.1526775,22.1466207 41.418365,22.6293793 41.8966025,22.8817931 C42.7740525,23.3093793 44.186965,23.4086897 44.99084,22.7714483 C45.238815,22.5397241 45.4118525,22.1714483 45.3546275,21.7866207 C45.069865,20.7411034 43.7141775,20.9521379 42.797215,20.6983448 C41.4987525,20.445931 40.2970275,20.0955862 39.13209,19.5521379 C38.273715,19.1631724 37.7409775,18.3121379 37.761415,17.268 C37.706915,16.0486897 38.47264,15.0266207 39.5231275,14.525931 C41.472865,13.5617931 44.06979,13.605931 46.2075525,14.130069 C47.37249,14.4417931 48.650515,15.2569655 48.9162025,16.5342069 C48.9543525,16.765931 48.9925025,16.9976552 48.972065,17.2293793 L45.3628025,17.2238621 C45.26879,16.7011034 44.94179,16.2638621 44.42949,16.0804138 C43.680115,15.8142069 42.328515,15.6321379 41.7739775,16.4045517 C41.6023025,16.6376552 41.52464,16.9645517 41.620015,17.2748966 C41.9620025,17.9521379 42.764515,17.9728276 43.413065,18.1466207 C45.6271275,18.6928276 48.70229,18.6404138 49.36719,21.3673103 C49.5565775,22.3935172 49.1151275,23.3190345 48.388915,23.8983448 C46.399665,25.4031724 43.2863525,25.4748966 40.6512775,25.0445517 C39.238365,24.7535172 37.979415,23.9962759 37.619715,22.525931 C37.543415,22.2362759 37.52434,21.9273103 37.4875525,21.6169655 L41.15404,21.6238621" id="Fill-3" fill="#003B44"></path>
                <polygon id="Fill-5" fill="#003B44" points="60.4353225 14.0322759 60.4353225 16.1426207 56.8628475 16.1426207 56.8628475 25.1288276 53.20726 25.1288276 53.20726 16.1426207 49.4344975 16.1426207 49.4344975 14.0322759 60.436685 14.0405517"></polygon>
                <path d="M66.35375,16.0406897 C67.130375,16.0268966 67.8702125,16.0765517 68.454725,16.4531034 C68.874375,16.762069 69.0065375,17.2834483 68.9098,17.8062069 C68.814425,18.3855172 68.258525,18.7524138 67.70535,18.8682759 C66.5976375,18.9427586 66.0649,18.9427586 64.9381125,18.9013793 L64.961275,16.077931 L64.9381125,16.077931 C65.4068125,16.0806897 65.887775,16.0489655 66.35375,16.0406897 Z M61.3928875,14.0324138 L61.3928875,25.1289655 C61.3928875,25.1289655 63.773175,25.1468966 64.9381125,25.1289655 L64.9381125,21.0089655 C66.45185,21.0282759 67.1099375,20.9744828 68.2558,20.9758621 C69.6687125,20.882069 71.0448375,20.5551724 71.9631625,19.5717241 C72.7479625,18.7606897 72.9795875,17.3689655 72.5980875,16.2282759 C71.9522625,14.5827586 70.1197,14.1703448 68.4969625,14.0324138 L61.3928875,14.0324138 Z" id="Fill-7" fill="#003B44"></path>
                <path d="M77.621625,16.2750345 L79.294775,20.721931 L76.0479375,20.721931 L77.621625,16.2750345 Z M75.7345625,14.0405517 L70.7696125,25.1288276 L74.302575,25.1288276 L75.147325,23.0322759 L80.341175,23.0322759 L81.2554125,25.1288276 L85.169875,25.1288276 L80.1272625,14.0405517 L75.7345625,14.0405517 Z" id="Fill-9" fill="#003B44"></path>
                <path d="M89.329315,14.0390345 L89.329315,18.8666207 L93.19064,14.0390345 L97.259065,14.0390345 L93.144315,18.8735172 C93.144315,18.8735172 97.9852775,25.0914483 98.00299,25.1286897 L93.667515,25.1286897 L89.329315,19.370069 L89.329315,25.1286897 L85.92034,25.1286897 L85.92034,14.0390345 L89.329315,14.0390345" id="Fill-11" fill="#003B44"></path>
                <path d="M98.7902425,14.9737931 C98.993255,14.9737931 99.1826425,15.0110345 99.3570425,15.0855172 C99.532805,15.16 99.69358,15.2703448 99.8393675,15.417931 C99.9837925,15.5655172 100.094155,15.7268966 100.165005,15.9048276 C100.237217,16.0813793 100.274005,16.2731034 100.274005,16.4827586 C100.274005,16.6868966 100.237217,16.8786207 100.165005,17.0565517 C100.094155,17.2317241 99.9837925,17.3931034 99.8393675,17.5393103 C99.69358,17.6868966 99.532805,17.7986207 99.3570425,17.8731034 C99.1826425,17.9462069 98.993255,17.9848276 98.7902425,17.9848276 C98.58723,17.9848276 98.3978425,17.9462069 98.22208,17.8731034 C98.0463175,17.7986207 97.886905,17.6868966 97.7411175,17.5393103 C97.59533,17.3931034 97.48633,17.2317241 97.4141175,17.0565517 C97.3432675,16.8786207 97.30648,16.6868966 97.30648,16.4827586 C97.30648,16.2731034 97.3432675,16.0813793 97.4141175,15.9048276 C97.48633,15.7268966 97.59533,15.5655172 97.7411175,15.417931 C97.886905,15.2703448 98.0463175,15.16 98.22208,15.0855172 C98.3978425,15.0110345 98.58723,14.9737931 98.7902425,14.9737931 Z M98.75073,15.6041379 C98.98508,15.6041379 99.1608425,15.6441379 99.276655,15.7255172 C99.3924675,15.8068966 99.451055,15.9268966 99.451055,16.0910345 C99.451055,16.2082759 99.41563,16.3034483 99.34478,16.3793103 C99.2752925,16.4537931 99.1771925,16.5034483 99.047755,16.5268966 C99.102255,16.5558621 99.15403,16.5986207 99.200355,16.6524138 C99.2480425,16.7062069 99.2916425,16.7724138 99.3297925,16.8510345 L99.5532425,17.2993103 L99.09408,17.2993103 L98.8801675,16.8675862 C98.829755,16.7613793 98.7847925,16.6868966 98.7466425,16.6441379 C98.70713,16.6 98.66898,16.5765517 98.6294675,16.5765517 L98.606305,16.5765517 L98.606305,17.2993103 L98.1798425,17.2993103 L98.1798425,15.6041379 L98.75073,15.6041379 Z M98.6757925,15.8841379 L98.606305,15.8841379 L98.606305,16.3034483 L98.6757925,16.3034483 C98.780705,16.3034483 98.8583675,16.2855172 98.9101425,16.2510345 C98.96328,16.2137931 98.99053,16.16 98.99053,16.0910345 C98.99053,16.0206897 98.9646425,15.9696552 98.911505,15.9337931 C98.8610925,15.9006897 98.78343,15.8841379 98.6757925,15.8841379 Z M98.7902425,15.2868966 C98.628105,15.2868966 98.47823,15.3158621 98.339255,15.3751724 C98.20028,15.4331034 98.0735675,15.5213793 97.957755,15.6386207 C97.84058,15.7558621 97.75338,15.8855172 97.6947925,16.0262069 C97.6375675,16.1641379 97.608955,16.3172414 97.608955,16.4827586 C97.608955,16.6455172 97.6375675,16.7972414 97.6947925,16.937931 C97.75338,17.0772414 97.84058,17.2055172 97.957755,17.3227586 C98.072205,17.4386207 98.1989175,17.5268966 98.3378925,17.5848276 C98.47823,17.6427586 98.628105,17.6717241 98.7902425,17.6717241 C98.955105,17.6717241 99.10498,17.6441379 99.2425925,17.5875862 C99.380205,17.5296552 99.5069175,17.44 99.62273,17.3227586 C99.7385425,17.2055172 99.8257425,17.0772414 99.8829675,16.937931 C99.941555,16.7972414 99.97153,16.6455172 99.97153,16.4827586 C99.97153,16.3172414 99.941555,16.1641379 99.8829675,16.0262069 C99.8257425,15.8855172 99.7385425,15.7558621 99.62273,15.6386207 C99.505555,15.52 99.37748,15.4317241 99.238505,15.3737931 C99.1008925,15.3158621 98.95238,15.2868966 98.7902425,15.2868966 Z" id="Fill-13" fill="#003B44"></path>
                <g id="Group-17">
                    <mask id="mask-2" fill="white">
                        <use xlink:href="#path-1"></use>
                    </mask>
                    <g id="Clip-16"></g>
                    <path d="M43.299705,31.5121379 C43.6771175,32.2211034 44.08723,32.8928276 44.52868,33.5231724 C45.72223,35.2266207 47.1460425,36.6362759 48.7347175,37.645931 C44.0667925,36.8376552 39.9057175,35.0721379 36.656155,32.6583448 C36.1751925,32.3011034 35.71603,31.930069 35.2759425,31.5452414 L43.299705,31.5121379 Z M64.3326175,31.4238621 C64.0573925,31.9038621 63.7658175,32.365931 63.459255,32.8031724 C61.4386675,35.6914483 58.79678,37.5769655 55.8796675,38.0335172 C55.4191425,38.0376552 54.9586175,38.0390345 54.49673,38.0390345 C54.0348425,38.0390345 53.5743175,38.0376552 53.11243,38.0335172 C50.19668,37.5769655 47.5547925,35.6914483 45.5328425,32.8031724 C45.2439925,32.3907586 44.9687675,31.9576552 44.70853,31.5066207 L64.3326175,31.4238621 Z M73.901455,31.3824828 C73.40823,31.8266207 72.88503,32.2514483 72.337305,32.6583448 C69.08638,35.0721379 64.925305,36.8376552 60.2587425,37.645931 C61.8474175,36.6362759 63.27123,35.2266207 64.4634175,33.5231724 C64.925305,32.8638621 65.35313,32.1617931 65.7441675,31.4183448 L73.901455,31.3824828 Z M60.2587425,1.63075862 C64.925305,2.43903448 69.08638,4.20455172 72.337305,6.61834483 C72.8700425,7.0142069 73.378255,7.428 73.86058,7.85834483 L65.7605175,7.89144828 C65.3653925,7.13696552 64.930755,6.42386207 64.4634175,5.75489655 C63.27123,4.05006897 61.8474175,2.64041379 60.2587425,1.63075862 Z M48.7347175,1.63075862 C47.1460425,2.64041379 45.72223,4.05006897 44.52868,5.75489655 C44.0422675,6.45006897 43.5926425,7.19627586 43.1838925,7.98524138 L34.9516675,8.02110345 C35.48713,7.53282759 36.0552925,7.06386207 36.656155,6.61834483 C39.9057175,4.20455172 44.0667925,2.43903448 48.7347175,1.63075862 Z M43.66213,1.62386207 C40.770905,2.60041379 38.154905,3.95489655 35.925855,5.61144828 C33.506055,7.40868966 31.538605,9.57144828 30.1856425,11.9824828 L31.6189925,11.9824828 C32.2048675,11.0362759 32.895655,10.1328276 33.6845425,9.27765517 L42.5843925,9.24041379 C42.20153,10.1107586 41.8677175,11.028 41.5843175,11.9824828 L42.874605,11.9824828 C43.1784425,11.0197241 43.5354175,10.0997241 43.942805,9.23489655 L65.007055,9.14524138 C65.432155,10.0376552 65.8041175,10.9852414 66.118855,11.9824828 L67.4091425,11.9824828 C67.1148425,10.9921379 66.7660425,10.0417931 66.364105,9.13972414 L75.0718425,9.10248276 L75.0718425,9.02386207 C75.9601925,9.95351724 76.7313675,10.9424828 77.37583,11.9824828 L78.8078175,11.9824828 C77.454855,9.57144828 75.4887675,7.40868966 73.067605,5.61144828 C70.8371925,3.95489655 68.222555,2.60041379 65.3299675,1.62386207 C75.590955,2.3617931 85.0943925,4.13696552 92.57588,6.75903448 C97.60623,8.5217931 101.515243,10.5962759 104.132605,12.8086897 C106.749968,15.0238621 108.055243,17.3369655 108.055243,19.6390345 C108.055243,21.9411034 106.749968,24.2542069 104.132605,26.468 C101.515243,28.6817931 97.60623,30.7562759 92.57588,32.5176552 C85.0943925,35.1397241 75.590955,36.9148966 65.3299675,37.6542069 C68.222555,36.6776552 70.8371925,35.3217931 73.067605,33.6666207 C75.84438,31.6017931 78.0230175,29.0624828 79.3637175,26.2142069 L77.988955,26.2142069 C77.2436675,27.6542069 76.2599425,29.0114483 75.067755,30.2583448 L75.067755,30.1273103 L66.353205,30.1631724 C66.903655,28.9314483 67.356005,27.6086897 67.704805,26.2142069 L66.4308675,26.2142069 C66.058905,27.6252414 65.573855,28.9521379 64.98798,30.170069 L44.046355,30.2583448 C43.4427675,29.0155862 42.9440925,27.6583448 42.5625925,26.2142069 L41.288655,26.2142069 C41.64563,27.6445517 42.11433,29.0031724 42.6852175,30.2638621 L33.9652175,30.2997241 C32.7553175,29.0417931 31.7579675,27.6707586 31.004505,26.2142069 L29.62838,26.2142069 C30.5317175,28.1328276 31.8151925,29.9121379 33.4065925,31.4997241 L33.4065925,31.5535172 L33.45973,31.5535172 C34.2159175,32.3024828 35.04023,33.0086897 35.925855,33.6666207 C38.154905,35.3217931 40.770905,36.6776552 43.66213,37.6542069 C33.402505,36.9148966 23.8990675,35.1397241 16.41758,32.5176552 C11.3858675,30.7562759 7.476855,28.6817931 4.860855,26.468 C2.2434925,24.2542069 0.9382175,21.9411034 0.9382175,19.6390345 C0.9382175,17.3369655 2.2434925,15.0238621 4.860855,12.8086897 C7.476855,10.5962759 11.3858675,8.5217931 16.41758,6.75903448 C23.8990675,4.13696552 33.402505,2.3617931 43.66213,1.62386207 Z M54.49673,1.23765517 C54.9586175,1.23765517 55.4191425,1.24041379 55.8796675,1.24455172 C58.79678,1.70110345 61.4386675,3.58662069 63.459255,6.47489655 C63.775355,6.92593103 64.0737425,7.40041379 64.35578,7.89696552 L44.5899925,7.97972414 C44.885655,7.4542069 45.2003925,6.94937931 45.5328425,6.47489655 C47.5547925,3.58662069 50.19668,1.70110345 53.11243,1.24455172 C53.5743175,1.24041379 54.0348425,1.23765517 54.49673,1.23765517 Z M54.499455,0.288689655 C53.213255,0.288689655 51.9284175,0.305241379 50.6449425,0.336965517 C48.8328175,0.383862069 47.027505,0.461103448 45.23718,0.570068966 C43.446855,0.680413793 41.67288,0.822482759 39.9220675,0.994896552 C38.1698925,1.16731034 36.4449675,1.37006897 34.75138,1.60455172 C33.0577925,1.83765517 31.3982675,2.10248276 29.7796175,2.39627586 C28.159605,2.68868966 26.58183,3.00868966 25.053105,3.35765517 C23.52438,3.70662069 22.0460675,4.0817931 20.622255,4.48317241 C19.199805,4.88455172 17.8332175,5.31075862 16.5306675,5.76041379 C15.226755,6.21006897 13.98688,6.6817931 12.8164925,7.17558621 C11.646105,7.66937931 10.545205,8.18386207 9.5192425,8.71627586 C8.49328,9.24868966 7.542255,9.79903448 6.6716175,10.365931 C5.80098,10.9314483 5.0093675,11.5135172 4.30223,12.108 C3.5950925,12.7011034 2.9710675,13.3093793 2.4342425,13.9245517 C1.8974175,14.5411034 1.4477925,15.165931 1.08673,15.7990345 C0.724305,16.4307586 0.4531675,17.0693793 0.271955,17.7121379 C0.0907425,18.3548966 -0.000545,19.0004138 -0.000545,19.6445517 C0.0008175,20.1024828 0.04578,20.5590345 0.1370675,21.0142069 C0.2651425,21.6569655 0.484505,22.2983448 0.79243,22.9342069 C1.1017175,23.570069 1.4995675,24.2004138 1.98598,24.8224828 C2.4723925,25.4445517 3.046005,26.0569655 3.7040925,26.6569655 C4.36218,27.2597241 5.1047425,27.850069 5.929055,28.4252414 C6.7533675,29.0004138 7.6580675,29.5590345 8.64043,30.1024828 C9.62143,30.645931 10.67873,31.1714483 11.8082425,31.6762759 C12.937755,32.1811034 14.1381175,32.6666207 15.40388,33.130069 C16.6696425,33.5935172 18.000805,34.0321379 19.390555,34.4486897 C20.780305,34.8652414 22.22728,35.2555862 23.7273925,35.6197241 C25.2261425,35.9838621 26.7766675,36.3204138 28.3707925,36.6307586 C29.96628,36.9411034 31.604005,37.2211034 33.277155,37.4721379 C34.950305,37.7231724 36.6575175,37.9452414 38.3933425,38.1355862 C40.13053,38.325931 41.89088,38.485931 43.6716675,38.6142069 C45.4538175,38.7424828 47.250955,38.8390345 49.0589925,38.9038621 C50.86703,38.9673103 52.6832425,39.0004138 54.499455,39.0004138 C55.7870175,39.0004138 57.071855,38.9838621 58.35533,38.9521379 C60.167455,38.9052414 61.9727675,38.828 63.7630925,38.7190345 C65.5534175,38.610069 67.3273925,38.468 69.078205,38.2955862 C70.8290175,38.1217931 72.555305,37.9190345 74.24753,37.685931 C75.94248,37.4514483 77.602005,37.1866207 79.220655,36.8942069 C80.8406675,36.6017931 82.41708,36.2804138 83.9471675,35.9314483 C85.4758925,35.5824828 86.954205,35.2073103 88.3780175,34.8073103 C89.8004675,34.405931 91.167055,33.9783448 92.469605,33.530069 C93.7735175,33.0804138 95.0133925,32.6073103 96.18378,32.1148966 C97.3541675,31.6197241 98.453705,31.1066207 99.48103,30.5728276 C100.506992,30.0417931 101.456655,29.490069 102.328655,28.9245517 C103.199293,28.3576552 103.989542,27.7769655 104.698042,27.1824828 C105.40518,26.588 106.029205,25.9811034 106.56603,25.3645517 C107.102855,24.7493793 107.55248,24.1231724 107.913542,23.4914483 C108.274605,22.8583448 108.547105,22.2197241 108.728318,21.5769655 C108.90953,20.9355862 109.000818,20.290069 108.999455,19.6445517 C108.999455,19.188 108.954493,18.7314483 108.863205,18.2748966 C108.73513,17.6321379 108.515767,16.9921379 108.207842,16.3548966 C107.898555,15.7190345 107.500705,15.090069 107.014292,14.468 C106.52788,13.8445517 105.954267,13.2321379 105.29618,12.6321379 C104.638092,12.0293793 103.89553,11.4404138 103.071218,10.8652414 C102.246905,10.290069 101.342205,9.73006897 100.359842,9.18662069 C99.3788425,8.64455172 98.3215425,8.11903448 97.19203,7.6142069 C96.0625175,7.108 94.862155,6.62248276 93.5963925,6.16041379 C92.33063,5.69696552 90.9994675,5.25696552 89.6097175,4.84041379 C88.2199675,4.42524138 86.7729925,4.03489655 85.27288,3.66937931 C83.77413,3.30662069 82.223605,2.96868966 80.6281175,2.65972414 C79.0339925,2.34937931 77.3962675,2.068 75.7231175,1.81834483 C74.0499675,1.56593103 72.3413925,1.34524138 70.60693,1.15351724 C68.8697425,0.963172414 67.10803,0.803172414 65.3272425,0.676275862 C63.546455,0.548 61.7493175,0.450068966 59.9399175,0.38662069 C58.1332425,0.321793103 56.31703,0.288689655 54.499455,0.288689655 Z" id="Fill-15" fill="#003B44" mask="url(#mask-2)"></path>
                </g>
                <path d="M49.8480162,26.2588966 L50.4761287,26.2588966 L50.4761287,27.7388966 C50.4761287,27.9430345 50.5088287,28.0892414 50.5742288,28.1775172 C50.6409912,28.2644138 50.7486288,28.3071724 50.8985038,28.3071724 C51.0483788,28.3071724 51.1560163,28.2644138 51.2214163,28.1775172 C51.2881788,28.0892414 51.3208788,27.9430345 51.3208788,27.7388966 L51.3208788,26.2588966 L51.9489913,26.2588966 L51.9489913,27.7388966 C51.9489913,28.0878621 51.8631538,28.3485517 51.6901163,28.5195862 C51.5170788,28.6906207 51.2527538,28.7747586 50.8985038,28.7747586 C50.5442538,28.7747586 50.2799287,28.6906207 50.1068912,28.5195862 C49.9338537,28.3485517 49.8480162,28.0878621 49.8480162,27.7388966 L49.8480162,26.2588966 Z" id="Fill-18" fill="#003B44"></path>
                <mask id="mask-4" fill="white">
                    <use xlink:href="#path-3"></use>
                </mask>
                <g id="Clip-21"></g>
                <polygon id="Fill-20" fill="#003B44" mask="url(#mask-4)" points="52.5993125 28.7282759 53.1879125 28.7282759 53.1879125 28.0882759 52.5993125 28.0882759"></polygon>
                <path d="M55.5361812,26.3369655 L55.5361812,26.8597241 C55.4026562,26.7990345 55.2718562,26.7535172 55.1437812,26.7217931 C55.0170687,26.6914483 54.8958062,26.6762759 54.7827187,26.6762759 C54.6328437,26.6762759 54.5211187,26.6969655 54.4502687,26.7383448 C54.3780562,26.7797241 54.3426312,26.845931 54.3426312,26.9342069 C54.3426312,26.9990345 54.3657937,27.0528276 54.4134812,27.090069 C54.4625312,27.125931 54.5510937,27.1576552 54.6791687,27.1824828 L54.9462187,27.2376552 C55.2173562,27.2928276 55.4108312,27.3769655 55.5252812,27.490069 C55.6397312,27.6017931 55.6955937,27.7617931 55.6955937,27.9686897 C55.6955937,28.2417931 55.6165687,28.4431724 55.4557937,28.5769655 C55.2977437,28.7093793 55.0538562,28.7755862 54.7254937,28.7755862 C54.5715312,28.7755862 54.4162062,28.7604138 54.2608812,28.730069 C54.1055562,28.7011034 53.9488687,28.6583448 53.7935437,28.5990345 L53.7935437,28.0611034 C53.9488687,28.1452414 54.1001062,28.2073103 54.2445312,28.2514483 C54.3903187,28.2928276 54.5306562,28.3148966 54.6655437,28.3148966 C54.8031562,28.3148966 54.9080687,28.2914483 54.9802812,28.2445517 C55.0538562,28.1990345 55.0906437,28.1328276 55.0906437,28.045931 C55.0906437,27.970069 55.0647562,27.9107586 55.0157062,27.868 C54.9666562,27.8266207 54.8671937,27.7893793 54.7200437,27.7548966 L54.4761562,27.7011034 C54.2322687,27.6473103 54.0537812,27.5645517 53.9406937,27.4486897 C53.8289687,27.3328276 53.7731062,27.1755862 53.7731062,26.9811034 C53.7731062,26.7342069 53.8507687,26.5452414 54.0074562,26.4142069 C54.1641437,26.2804138 54.3903187,26.2142069 54.6846187,26.2142069 C54.8181437,26.2142069 54.9557562,26.2252414 55.0974562,26.2473103 C55.2377937,26.2652414 55.3849437,26.2969655 55.5361812,26.3369655" id="Fill-22" fill="#003B44" mask="url(#mask-4)"></path>
                <polygon id="Fill-23" fill="#003B44" mask="url(#mask-4)" points="56.2835125 28.7282759 56.8721125 28.7282759 56.8721125 28.0882759 56.2835125 28.0882759"></polygon>
                <path d="M58.1767062,27.82 L58.8443312,27.82 L58.5118812,26.837931 L58.1767062,27.82 Z M59.0023812,28.277931 L58.0200187,28.277931 L57.8646938,28.7275862 L57.2324938,28.7275862 L58.1358312,26.2586207 L58.8865687,26.2586207 L59.7885437,28.7275862 L59.1563437,28.7275862 L59.0023812,28.277931 Z" id="Fill-24" fill="#003B44" mask="url(#mask-4)"></path>
                <polygon id="Fill-25" fill="#003B44" mask="url(#mask-4)" points="60.2102375 28.7282759 60.7988375 28.7282759 60.7988375 28.0882759 60.2102375 28.0882759"></polygon>
            </g>
        </g>
    </g>
</svg>