<svg width="134" height="60" viewBox="0 0 134 60" fill="none" xmlns="http://www.w3.org/2000/svg">
<mask id="mask0" mask-type="alpha" maskUnits="userSpaceOnUse" x="0" y="20" width="134" height="24">
<path fill-rule="evenodd" clip-rule="evenodd" d="M0 20H134V44H0V20Z" fill="white"/>
</mask>
<g mask="url(#mask0)">
<path fill-rule="evenodd" clip-rule="evenodd" d="M98.9427 27.7343C99.4635 27.862 101.579 27.903 101.841 26.3915C102.102 24.8821 99.5222 24.0566 98.0567 25.1553C97.2264 25.7771 96.9893 27.2581 98.9427 27.7343V27.7343ZM10.9583 23.4557C10.94 23.1952 10.9431 23.0735 10.5946 23.0257C10.3438 22.9906 10.099 23.0138 9.86039 23.0936C6.63141 23.5161 3.23928 25.3352 2.63923 28.4375C2.58052 28.7413 2.52334 30.0759 3.08907 31.2098C4.1321 33.3014 6.60473 34.3733 7.82312 34.7204C8.78228 34.9936 10.6198 35.228 10.799 35.1145C10.8844 35.06 10.9271 34.9667 10.9255 34.8338L10.9583 23.4557ZM29.4866 33.37C28.2987 34.7965 25.8268 36.491 22.3844 37.5114C21.2483 37.848 19.8409 38.1048 18.1627 38.2802C16.2833 38.478 14.4328 38.4698 12.6121 38.2563C8.24552 37.7786 4.84499 36.429 2.41202 34.2076C-4.03602 28.3188 2.97623 19.5107 17.1143 20.0212C19.4101 20.1048 26.3125 20.8483 28.4901 24.0797C29.5034 25.5831 27.7749 24.6351 27.3685 24.497C25.1391 23.7401 23.05 23.275 21.1004 23.1011C20.0482 23.007 20.0155 22.9652 20.0467 23.8901C20.1649 27.4014 19.9613 30.9165 20.0223 34.4285C20.0376 35.2369 19.76 35.3616 21.8377 35.0466C24.1113 34.7017 26.3339 34.1195 28.5046 33.2999C29.1816 33.0431 30.3497 32.3347 29.4866 33.37V33.37ZM81.8981 43.8159C81.8417 43.7368 81.4864 41.5638 81.5558 39.4738C81.5924 38.3981 81.5787 37.4554 81.52 36.6485C81.34 34.1949 81.6564 33.0237 81.2066 33.3745L79.8022 34.4778C78.3398 35.6266 77.1938 36.1625 76.3551 36.0886C75.431 36.0073 74.2881 34.2576 73.3244 33.3984C73.0751 33.1767 72.8806 33.1439 72.7396 33.3014L71.0851 35.1429C70.2639 36.0588 69.6143 36.3551 69.1477 36.0371C69.0394 35.964 68.9563 35.855 68.8625 35.7624C67.3826 34.3173 66.7643 32.861 66.2923 33.326L64.2108 35.3899C62.8117 36.7731 62.1621 36.1401 61.5682 35.4967C59.9396 33.7194 59.845 32.7789 59.1649 33.1737C59.0376 33.2491 58.6076 33.5484 57.8779 34.0784C56.8593 34.8174 55.2353 36.2357 54.5392 36.3193C53.3261 36.4723 52.7428 34.9256 52.2793 34.7764C51.5725 34.5427 51.5221 35.7191 49.2127 36.2163C47.3622 36.6156 45.7664 35.7736 45.3387 34.6241C45.2502 34.3822 45.3112 33.8448 44.7943 34.1105C44.3894 34.3173 42.6076 36.0968 40.8318 36.1371C39.8185 36.1625 39.4716 36.1543 38.4644 34.8226C38.2006 34.4725 38.0314 34.0508 37.7485 33.7134C37.3345 33.2305 37.105 33.5484 36.8824 33.7679C36.6132 34.0344 35.1036 36.42 33.3995 36.1595C32.8086 36.0677 32.3587 35.5646 32.0561 34.6405C31.6703 33.4641 31.5513 31.2904 31.6954 28.1195L31.9234 23.172C31.9508 22.5987 32.6226 22.7316 33.5489 22.751C34.5401 22.7697 34.9427 22.6749 34.948 23.1802C34.9503 23.3101 34.9312 23.4407 34.9229 23.5714C34.8367 25.0165 34.9008 25.0411 34.9396 25.6846C35.0121 26.8237 34.945 27.9672 34.9808 29.1085C35.0426 30.959 35.1196 31.9592 35.2088 32.1138C35.2926 32.2601 35.3918 32.2847 35.5031 32.1839L37.0768 30.7604C38.0009 29.9267 38.6695 29.4594 39.0805 29.3668C40.0458 29.1436 40.3317 29.8013 40.507 30.0536C40.8845 30.5947 41.8695 33.8418 43.232 32.9475L46.2879 30.9321C48.1331 29.7169 49.8402 29.1847 51.4108 29.334C52.2381 29.4131 51.8553 29.8095 51.6388 29.9505C51.5084 30.0349 48.9496 30.8694 48.9634 32.7983C48.974 34.4852 51.1806 34.3277 51.741 32.752C51.9857 32.0697 51.8104 30.0976 53.179 30.4969C53.4649 30.5813 53.9727 31.0508 54.6939 31.904C55.0607 32.3414 55.4602 33.2252 55.8879 33.0185C55.9512 32.9886 55.9985 32.9364 56.0541 32.8968C56.5093 32.5542 56.8921 32.1212 57.3305 31.7577C58.5298 30.7575 59.8702 29.3915 60.3917 29.2063C60.9636 29.0055 61.4355 29.3422 61.5072 29.4318L63.7526 32.0973C63.9608 32.3496 64.1277 32.3989 64.252 32.2466L66.2641 29.8065C67.1081 28.7853 68.171 29.1653 68.5263 29.6109L70.4324 32.0242C70.6688 32.3258 70.8693 32.3773 71.0325 32.1817L73.0308 29.7766C73.4853 29.231 73.9938 29.016 74.5542 29.1384C75.1756 29.272 78.2285 32.6811 78.5334 32.796C79.0199 32.9804 79.7801 32.3795 80.8185 30.9971C81.1814 30.5104 81.4147 29.9341 81.8089 29.4758C82.0453 29.1959 82.1116 28.9428 83.5321 29.0085C84.7421 29.0593 84.5568 29.3803 84.5316 30.7358C84.5233 31.3121 84.537 31.6002 84.5759 31.6002H84.6452C84.7001 31.6002 84.7398 31.5457 84.7871 31.5159C84.8618 31.4666 86.665 29.4482 89.0331 29.1085C91.7192 28.7286 93.3677 30.1685 93.2655 31.4151C93.2426 31.7144 93.1626 32.0787 93.0238 32.5019C92.8545 33.0267 92.0189 33.9179 93.848 33.5104C95.0695 33.2409 96.2009 32.5131 97.2478 31.3277C98.1055 30.3559 97.4254 30.2573 97.8059 29.3638C98.0499 28.7906 98.871 28.8913 99.1379 28.8831C102.718 28.7801 101.569 28.9645 101.79 31.6629C101.885 32.8042 101.097 34.6808 103.839 33.2163C107.4 31.3173 108.471 28.0001 111.679 28.3449C112.523 28.4375 112.901 28.7092 112.531 28.9757C112.401 29.0705 110.466 29.3452 110.195 31.1464C110.084 31.8742 110.461 33.9508 111.771 33.6186C112.518 33.4312 112.984 32.2033 112.762 30.9941C112.661 30.4454 112.001 29.7012 112.543 29.6736L114.233 29.5975C116.392 29.5027 120.039 28.3882 120.671 28.6928C120.865 28.7853 121.085 29.057 121.337 29.5027C121.676 30.1058 121.99 31.6196 122.431 31.2009L123.555 30.1379C124.856 28.9078 125.85 28.4756 126.546 28.845C127.482 29.3392 128.764 33.2603 131.098 32.2115C131.983 31.8114 133.158 30.4342 133.862 31.0053C134.168 31.2494 133.965 31.7958 133.254 32.6355C132.622 33.3827 131.64 34.171 130.311 34.9966C129.563 35.4579 128.934 35.6967 128.42 35.7109C127.954 35.7251 127.599 35.5915 127.358 35.3175L124.813 32.4235C124.629 32.2138 124.487 32.1705 124.387 32.2929L123.478 33.4238C123.33 33.6082 121.607 35.4989 120.647 35.7079C119.914 35.8684 119.636 35.2406 119.376 34.8114C119.273 34.6323 119.029 34.165 118.654 33.4014C117.257 30.5567 117.771 30.3723 116.161 30.6709C115.091 30.8694 115.956 31.3584 115.917 32.3579C115.795 35.8169 111.316 36.8515 108.771 35.5348C106.592 34.4069 106.98 32.9864 106.503 33.3745L105.335 34.3307C103.495 35.8333 100.073 36.1565 98.6103 35.4937C97.3011 34.901 97.8783 33.2461 97.4925 33.3141C97.109 33.385 95.2555 35.472 92.1744 35.8498C91.8367 35.893 89.2382 36.3088 87.4343 34.7435C86.9844 34.3524 86.9844 34.1598 87.4373 34.1628C88.1113 34.171 88.4552 34.4606 89.2077 33.7522C89.7293 33.2551 89.9046 32.6355 89.727 31.8936C89.6103 31.4128 89.21 31.2412 88.5253 31.3718C88.3477 31.4069 87.3092 31.7794 86.4103 32.8117C85.1286 34.2822 84.5202 36.3797 84.5896 39.105C84.6003 39.4499 84.5728 39.7925 84.5759 40.1374C84.5781 40.8084 84.6452 41.4773 84.6483 42.1476C84.6536 43.1478 84.8206 43.7077 84.0986 43.8764C83.7844 43.9465 82.1223 44.1451 81.8981 43.8159V43.8159Z" fill="#222222"/>
</g>
</svg>
