<svg width="55" height="60" viewBox="0 0 55 60" fill="none" xmlns="http://www.w3.org/2000/svg">
<mask id="mask0" mask-type="alpha" maskUnits="userSpaceOnUse" x="0" y="11" width="55" height="38">
<path fill-rule="evenodd" clip-rule="evenodd" d="M0 11H55V49H0V11Z" fill="white"/>
</mask>
<g mask="url(#mask0)">
<path fill-rule="evenodd" clip-rule="evenodd" d="M28.5595 11H19.1338V21.2217H9.79747V11H0.00364113V40.2161H9.76414V30.1941H19.101V40.2161H22.8607L28.5595 11ZM26.4665 40.2161H35.8609V30.1941H45.1958V40.2161H54.9913V11H45.2308V21.2217H35.8928V11H32.136L26.4665 40.2161ZM0 43.7642H1.33548V45.6326H3.09568V43.7642H4.432V48.8933H3.09568V46.7814H1.33548V48.8933H0V43.7642ZM45.6673 43.7642H49.7558V44.8343H47.0047V45.7326H49.5194V46.7674H47.0047V47.7434H49.8281V48.8933H45.6673V43.7642ZM14.6483 43.7642H15.9844V47.7434H18.3766V48.8933H14.6483V43.7642ZM10.2589 43.7642H11.5949V47.7434H13.9871V48.8933H10.2589V43.7642ZM20.72 46.9823V48.8933H19.3834V46.9823L17.5154 43.7642H19.031L20.0513 45.8475L21.0714 43.7642H22.5881L20.72 46.9823ZM25.1588 43.7642H26.4937V45.6326H28.253V43.7642H29.5894V48.8933H28.253V46.7814H26.4937V48.8933H25.1588V43.7642ZM31.9749 46.9823H33.1395L32.5713 45.1872H32.5573L31.9749 46.9823ZM31.8897 43.7642H33.2456L35.1638 48.8933H33.7709L33.4546 47.9736H31.6664L31.3426 48.8933H29.9712L31.8897 43.7642ZM35.5381 43.7642H36.9106L38.691 46.9248H38.7064V43.7642H39.9637V48.8933H38.5915L36.8097 45.6965H36.7954V48.8933H35.5381V43.7642ZM41.9183 47.1694C41.9477 47.7719 42.3198 47.9666 42.8879 47.9666C43.2894 47.9666 43.7062 47.8232 43.7062 47.4431C43.7062 46.9895 42.9742 46.9035 42.2335 46.6957C41.5012 46.4867 40.733 46.1567 40.733 45.2158C40.733 44.0947 41.8603 43.6575 42.8232 43.6575C43.8432 43.6575 44.8697 44.1527 44.8784 45.3088H43.5412C43.5631 44.8427 43.1241 44.6908 42.7148 44.6908C42.4271 44.6908 42.0682 44.7917 42.0682 45.1304C42.0682 45.5248 42.8089 45.597 43.5552 45.8049C44.2962 46.0128 45.0414 46.3581 45.0414 47.2848C45.0414 48.5843 43.9374 49 42.8089 49C41.6314 49 40.5895 48.4846 40.5809 47.1694H41.9183ZM5.33746 43.7642H9.42487V44.8343H6.67378V45.7326H9.18814V46.7674H6.67378V47.7434H9.49715V48.8933H5.33746V43.7642ZM50.5756 43.7642H51.9466L53.7295 46.9248H53.7427V43.7642H55V48.8933H53.6275L51.846 45.6965H51.8318V48.8933H50.5756V43.7642Z" fill="#222222"/>
</g>
</svg>
