<?xml version="1.0" encoding="UTF-8"?>
<svg width="105px" height="60px" viewBox="0 0 105 60" version="1.1" xmlns="http://www.w3.org/2000/svg" xmlns:xlink="http://www.w3.org/1999/xlink">
    <!-- Generator: Sketch 51.3 (57544) - http://www.bohemiancoding.com/sketch -->
    <title>Brand / Tommy Jeans</title>
    <desc>Created with Sketch.</desc>
    <defs>
        <polygon id="path-1" points="0.4517 0.875 15.7437 0.875 15.7437 17.5575 0.4517 17.5575"></polygon>
        <polygon id="path-3" points="0 31 84.901 31 84.901 0.875 0 0.875"></polygon>
    </defs>
    <g id="Brand-/-Tommy-Jeans" stroke="none" stroke-width="1" fill="none" fill-rule="evenodd">
        <g id="Group-24" transform="translate(10.000000, 14.000000)">
            <g>
                <polygon id="Fill-1" fill="#003B45" points="43.4043 19.7972 43.4043 30.6672 51.5563 30.6672 51.5563 28.2772 46.2123 28.2772 46.2123 26.1732 50.5953 26.1732 50.5953 23.8572 46.2123 23.8572 46.2123 22.1042 51.5513 22.1042 51.5513 19.7972"></polygon>
                <g id="Group-23" transform="translate(0.000000, 0.125500)">
                    <path d="M38.8486,27.4464 C38.8486,28.4364 38.3476,28.4364 38.1326,28.4364 C37.5796,28.4364 37.3526,27.9714 37.2606,27.5814 L37.1896,27.2864 L34.2626,27.7914 L34.3456,28.1274 C34.7656,29.8344 36.0356,30.6994 38.1186,30.6994 C40.6036,30.6994 41.8106,29.5104 41.8106,27.0644 L41.8106,19.6724 L38.8486,19.6724 L38.8486,27.4464 Z" id="Fill-2" fill="#003B45"></path>
                    <path d="M56.7178,26.0284 L57.7378,22.8384 L58.7698,26.0284 L56.7178,26.0284 Z M56.2008,19.6724 L52.5018,30.5424 L55.2528,30.5424 L55.9848,28.3054 L59.5018,28.3054 L60.2168,30.5424 L63.0808,30.5424 L59.3818,19.6724 L56.2008,19.6724 Z" id="Fill-4" fill="#003B45"></path>
                    <path d="M80.5459,24.0382 C80.1949,23.9062 79.8709,23.7932 79.5749,23.6902 C78.3439,23.2612 77.7999,23.0502 77.7999,22.5262 C77.7999,21.8222 78.7199,21.7672 79.0009,21.7672 C79.8499,21.7672 80.3699,22.0972 80.7969,22.9032 L80.9239,23.1422 L83.4849,22.3202 L83.3529,21.9962 C82.6999,20.4022 81.2509,19.5592 79.1599,19.5592 C76.7529,19.5592 75.0709,20.8382 75.0709,22.6672 C75.0709,23.7492 75.6089,24.6482 76.5849,25.1982 C77.2819,25.5972 78.1239,25.8682 79.0149,26.1562 L79.3929,26.2782 C80.6489,26.6932 80.8869,26.9952 80.8869,27.4062 C80.8869,28.1212 80.0849,28.3762 79.3349,28.3762 C78.4299,28.3762 77.8119,27.9592 77.2659,26.9812 L77.1289,26.7342 L74.5749,27.7372 L74.7209,28.0492 C75.5229,29.7712 77.1359,30.6832 79.3829,30.6832 C82.0029,30.6832 83.6309,29.3942 83.6309,27.3212 C83.6309,25.5282 82.5459,24.7842 80.5459,24.0382" id="Fill-6" fill="#003B45"></path>
                    <path d="M70.8418,25.4942 C70.8418,25.6242 70.8438,25.7522 70.8468,25.8772 C70.6728,25.5652 70.4878,25.2572 70.2928,24.9522 L66.8768,19.6722 L64.0578,19.6722 L64.0578,30.5422 L66.7218,30.5422 L66.7218,24.5652 C66.7218,24.4262 66.7208,24.2922 66.7188,24.1642 C66.9168,24.5302 67.1098,24.8542 67.2918,25.1282 L70.9948,30.5422 L73.5068,30.5422 L73.5068,19.6722 L70.8418,19.6722 L70.8418,25.4942 Z" id="Fill-8" fill="#003B45"></path>
                    <polygon id="Fill-10" fill="#003B45" points="0.458 4.4102 5.043 4.4102 5.043 17.3032 9.149 17.3032 9.149 4.4102 13.734 4.4102 13.734 1.0652 0.458 1.0652"></polygon>
                    <g id="Group-14" transform="translate(14.000000, 0.000000)">
                        <mask id="mask-2" fill="white">
                            <use xlink:href="#path-1"></use>
                        </mask>
                        <g id="Clip-13"></g>
                        <path d="M8.0977,14.1505 C5.7647,14.1505 4.5817,12.4905 4.5817,9.2155 C4.5817,5.9145 5.7647,4.2405 8.0977,4.2405 C10.4297,4.2405 11.6117,5.9145 11.6117,9.2155 C11.6117,12.4905 10.4297,14.1505 8.0977,14.1505 M8.0977,0.8745 C3.3097,0.8745 0.4517,3.9935 0.4517,9.2155 C0.4517,14.3615 3.3807,17.5575 8.0977,17.5575 C12.8137,17.5575 15.7437,14.3615 15.7437,9.2155 C15.7437,3.9935 12.8847,0.8745 8.0977,0.8745" id="Fill-12" fill="#003B45" mask="url(#mask-2)"></path>
                    </g>
                    <polygon id="Fill-15" fill="#003B45" points="80.7783 1.0655 77.7063 7.0165 74.5893 1.0655 70.2233 1.0655 75.5583 10.9105 75.5583 17.3025 79.6423 17.3025 79.6423 10.8875 84.9003 1.0655"></polygon>
                    <path d="M43.7734,1.0655 L41.1134,9.2755 C40.9044,9.8865 40.6604,10.6255 40.4204,11.4445 C40.2484,10.7265 40.0344,9.9875 39.7784,9.2345 L37.1674,1.0655 L31.7794,1.0655 L31.7794,17.3025 L35.4074,17.3025 L35.4074,6.2975 C35.4914,6.5615 35.5764,6.8295 35.6634,7.0995 L38.8484,17.3025 L41.8244,17.3025 L45.1064,7.1065 C45.1954,6.8465 45.2814,6.5895 45.3644,6.3335 L45.3644,17.3025 L48.9674,17.3025 L48.9674,1.0655 L43.7734,1.0655 Z" id="Fill-17" fill="#003B45"></path>
                    <path d="M63.5986,1.0655 L60.9386,9.2755 C60.7306,9.8865 60.4866,10.6255 60.2456,11.4445 C60.0736,10.7265 59.8596,9.9875 59.6046,9.2345 L56.9936,1.0655 L51.6056,1.0655 L51.6056,17.3025 L55.2326,17.3025 L55.2326,6.2975 C55.3166,6.5615 55.4016,6.8295 55.4896,7.0995 L58.6736,17.3025 L61.6496,17.3025 L64.9316,7.1065 C65.0206,6.8465 65.1066,6.5895 65.1896,6.3335 L65.1896,17.3025 L68.7926,17.3025 L68.7926,1.0655 L63.5986,1.0655 Z" id="Fill-19" fill="#003B45"></path>
                    <mask id="mask-4" fill="white">
                        <use xlink:href="#path-3"></use>
                    </mask>
                    <g id="Clip-22"></g>
                    <path d="M16.948,27.492 L32.062,27.492 L32.062,22.722 L16.948,22.722 L16.948,27.492 Z M0.916,30.084 L32.062,30.084 L32.062,28.408 L0.916,28.408 L0.916,30.084 Z M0.916,27.493 L16.031,27.493 L16.031,22.723 L0.916,22.723 L0.916,27.493 Z M0.916,21.806 L32.062,21.806 L32.062,20.13 L0.916,20.13 L0.916,21.806 Z M0,19.214 L0,22.265 L0,22.723 L0,27.492 L0,27.95 L0,31 L32.978,31 L32.978,27.95 L32.978,27.492 L32.978,22.723 L32.978,22.265 L32.978,19.214 L0,19.214 Z" id="Fill-21" fill="#003B45" mask="url(#mask-4)"></path>
                </g>
            </g>
        </g>
    </g>
</svg>