<?xml version="1.0" encoding="UTF-8"?>
<svg width="90px" height="60px" viewBox="0 0 90 60" version="1.1" xmlns="http://www.w3.org/2000/svg" xmlns:xlink="http://www.w3.org/1999/xlink">
    <!-- Generator: Sketch 58 (84663) - https://sketch.com -->
    <title>Brand/UGG-main</title>
    <desc>Created with Sketch.</desc>
    <g id="Brand/UGG-main" stroke="none" stroke-width="1" fill="none" fill-rule="evenodd">
        <g id="UGG" transform="translate(10.000000, 14.000000)" fill="#003B44">
            <path d="M38.2529198,15.051994 C37.8538436,15.046626 37.5438469,14.9509959 37.3229297,14.764905 C37.1020125,14.578814 36.9899703,14.3340726 36.9866051,14.0310783 L36.4378753,14.0310783 L36.4378753,21.5105039 L36.9866051,21.5105039 C36.9899703,21.2073108 37.1020125,20.9627682 37.3229297,20.7764784 C37.5438469,20.5903874 37.8538436,20.4945585 38.2529198,20.4891905 L45.0591884,20.4891905 L45.0591884,24.0213403 C44.4722534,24.5462123 43.430221,25.1241679 41.9336853,25.755406 C40.4371495,26.3866441 38.4469152,26.7307931 35.9629825,26.7874554 C33.9032662,26.7902388 32.0090399,26.3922109 30.2805015,25.5931729 C28.551963,24.793936 27.1617288,23.5769885 26.1101947,21.9419328 C25.0586605,20.306877 24.5184428,18.2368138 24.4895414,15.731743 C24.5148796,13.3362194 25.0620257,11.3448869 26.130584,9.75754679 C27.1993402,8.1702067 28.6372814,6.98228623 30.4444078,6.19378537 C32.2515341,5.4050857 34.2754207,5.01123291 36.5162653,5.01202817 C38.2899373,5.03648243 39.8931706,5.28062742 41.3253712,5.74426434 C42.7577697,6.20810006 43.8979875,6.74509976 44.7458265,7.35546225 C45.5936655,7.96562592 46.0277796,8.50262562 46.047971,8.96646134 C46.0414385,9.27104614 46.0149126,9.51201009 45.9687892,9.68915439 L46.517519,10.0718735 L50.3536787,3.10399925 L49.8,2.84891942 C49.7168591,2.9799386 49.5965028,3.08988337 49.439129,3.17835611 C49.2817552,3.26702767 49.1121082,3.31295396 48.9299901,3.31653264 C48.7767733,3.30500136 48.3515671,3.13680375 47.6545694,2.81174099 C46.9575718,2.48647942 46.0776641,2.07373918 45.0148466,1.57332147 C43.8758166,1.17251014 42.5701089,0.814444073 41.0981194,0.499322073 C39.625932,0.184200073 38.0717915,0.0177917989 36.4358957,3.90798505e-14 C33.6289014,-0.00845179983 30.8925767,0.546640077 28.2271198,1.66497525 C25.5616628,2.78331043 23.3532827,4.5161832 21.6021775,6.86319596 C19.8508743,9.21020871 18.9430551,12.2224569 18.8787199,15.8997418 C18.9210822,19.5772255 19.7233916,22.5892749 21.2856483,24.9364864 C22.847905,27.2834992 24.9155394,29.0161732 27.4887496,30.1345083 C30.0619597,31.2530423 32.8859782,31.8079354 35.9612009,31.7994836 C38.2598482,31.7689676 40.421907,31.4711425 42.4473771,30.9059111 C44.4728472,30.3406796 46.256417,29.6903553 47.7980864,28.9551369 C49.3397559,28.2201173 50.5344111,27.5823184 51.3818542,27.0423364 L51.3818542,26.4472827 C51.1272847,26.3896263 50.9443748,26.2814709 50.8331244,26.1228164 C50.7220719,25.9641619 50.6676344,25.7176311 50.6700099,25.3834229 L50.6700099,17.0059492 C50.6767403,16.545891 50.7525569,16.2130745 50.8974596,16.0076984 C51.0425602,15.8025212 51.2171561,15.6820392 51.4214451,15.6466501 L51.4214451,15.051994 L38.2529198,15.051994" id="Fill-2"></path>
            <path d="M19.4882217,23.225881 C18.9559221,21.9743396 18.5992082,20.6428746 18.3832399,19.2674715 C18.3191026,18.8602981 18.2745629,18.5145585 18.2335863,18.1040053 C18.1569779,17.3347895 18.1213461,16.6820794 18.1136259,15.9086885 C18.1136259,15.9003382 18.1136259,15.8931809 18.1138238,15.8848307 C18.1221379,15.3814307 18.1425272,14.9567616 18.1821181,14.455151 C18.2185417,13.9952915 18.2616958,13.6079997 18.3274167,13.1519177 C18.3939294,12.690269 18.4640053,12.3029771 18.5635764,11.8484856 C18.6546354,11.4325644 18.7443088,11.0846379 18.865259,10.6778621 C19.1202243,9.81420911 19.3989442,9.10602957 19.7980205,8.30798559 C20.1630485,7.57952691 20.5237215,6.99401632 21.0051468,6.34846355 C21.1981524,6.08940742 21.3965028,5.83750864 21.600198,5.59296601 L21.600198,3.43144779 C21.5908941,3.08531063 21.6380073,2.83858103 21.7417354,2.69145783 C21.8452656,2.54413581 22.0620257,2.47256236 22.3920158,2.47653866 L22.3920158,2.03497023 L16.7681293,2.03497023 L16.7681293,2.47653866 C17.0993072,2.47256236 17.3208182,2.54413581 17.4328604,2.69145783 C17.5449027,2.83858103 17.5967667,3.08531063 17.5884527,3.43144779 L17.5884527,16.6118976 C17.6038931,17.9014126 17.4285054,18.9736227 17.0624876,19.7581473 C16.6966678,20.5426718 16.047773,21.1112831 15.1161993,21.4637824 C14.1844276,21.8164804 12.8777301,21.9896484 11.1961069,21.983684 C9.51428571,21.9896484 8.20758825,21.8164804 7.27601452,21.4637824 C6.34424282,21.1112831 5.69554602,20.5426718 5.32952821,19.7581473 C4.96351039,18.9736227 4.78832069,17.9014126 4.80356318,16.6118976 L4.80356318,3.43144779 C4.79544705,3.08531063 4.84731112,2.83858103 4.95915539,2.69145783 C5.07119762,2.54413581 5.29270868,2.47256236 5.62388651,2.47653866 L5.62388651,2.03497023 L-7.68274333e-13,2.03497023 L-7.68274333e-13,2.47653866 C0.329990102,2.47256236 0.546750247,2.54413581 0.65047839,2.69145783 C0.754206532,2.83858103 0.801319696,3.08531063 0.791817882,3.43144779 L0.791817882,17.3759442 C0.81873969,20.3885901 1.73962389,22.5099476 3.55447047,23.7400169 C5.3691191,24.9698874 7.91639723,25.5637482 11.1961069,25.5212018 C14.4756186,25.5637482 17.0228967,24.9698874 18.8377433,23.7400169 C19.0691521,23.5831518 19.2859122,23.4117731 19.4882217,23.225881" id="Fill-4"></path>
            <path d="M44.1022765,14.2290982 L48.4778621,14.2290982 C48.4685582,14.0563278 48.4630155,13.880774 48.460838,13.702238 C48.4806335,11.8930202 48.9064335,10.3891825 49.7384362,9.19032719 C50.5702408,7.9916707 51.6896734,7.09441797 53.0963378,6.49896662 C54.5030023,5.90331645 56.0785219,5.605889 57.8226988,5.60648544 C59.2036292,5.62477644 60.4513362,5.80927689 61.5664137,6.15939035 C62.6812933,6.50970263 63.5689211,6.91528552 64.2289014,7.37613902 C64.8888816,7.83699252 65.2267898,8.24257541 65.2424282,8.59288769 C65.2374794,8.82291681 65.2168921,9.00503148 65.1808644,9.13883407 L65.6080501,9.42771247 L68.5941933,4.16547329 L68.1632465,3.97282142 C68.0985153,4.07183136 68.0048829,4.15473728 67.8823491,4.22153916 C67.7598152,4.28853987 67.6277796,4.32333252 67.4860442,4.32591711 C67.3666777,4.31736806 67.0356978,4.19012637 66.4931046,3.94458967 C65.9505114,3.69905297 65.2655889,3.38731083 64.4383372,3.00936324 C63.5516991,2.7067666 62.5354009,2.436378 61.3894424,2.19819746 C60.243484,1.96021574 59.0335863,1.83456457 57.7601452,1.8211726 C55.5751237,1.81488187 53.4451336,2.23398419 51.3703728,3.07855091 C51.3210822,3.09863124 51.2721874,3.11891039 51.2232926,3.13938834 L46.7699109,11.2287788 L45.0831409,10.0523897 L45.2308149,9.47204825 C45.2407126,9.43308048 45.2474431,9.39948072 45.2531838,9.35951888 C45.2531838,9.35872362 45.2533817,9.35792836 45.2533817,9.35693428 C45.2601122,9.3112068 45.2646651,9.27243785 45.2686242,9.22631273 C45.2753547,9.14718431 45.2793138,9.08018361 45.2816892,9.00085636 C45.2806994,8.99688006 45.2795117,8.9935002 45.2779281,8.98992153 C45.2771363,8.98793338 45.2763444,8.98634286 45.2755526,8.98435471 C45.2573408,8.94141064 45.2385351,8.9068168 45.2128011,8.86864429 C45.2124051,8.86784903 45.2118113,8.86725259 45.2114154,8.86645733 C45.191224,8.83623743 45.1688552,8.80581871 45.1451006,8.77539999 C44.4785879,10.2184003 44.1280106,11.902961 44.0931706,13.8290821 C44.0947542,13.9636799 44.0979215,14.0968861 44.1022765,14.2290982" id="Fill-5"></path>
            <path d="M51.4351039,20.2396775 L51.4351039,24.8325061 C53.2638073,25.5078812 55.2490927,25.8428847 57.3907621,25.8371922 C59.1800726,25.8140565 60.8630815,25.5891966 62.4397888,25.1621416 C64.0162983,24.7352855 65.4047509,24.2442121 66.6047509,23.6889214 C67.8049489,23.1338296 68.734939,22.6522993 69.3947212,22.2443306 L69.3947212,21.7950084 C69.1963708,21.7514679 69.0540416,21.6697548 68.9675355,21.5498693 C68.8808314,21.4299838 68.8386671,21.2438928 68.8404487,20.9913976 L68.8404487,14.6647021 C68.8455955,14.3171733 68.9045859,14.0658709 69.01742,13.9107951 C69.130452,13.7557193 69.2664467,13.6648608 69.4254042,13.6380207 L69.4254042,13.1888973 L59.1745299,13.1888973 C58.8639393,13.184921 58.6226328,13.1125523 58.4508083,12.97199 C58.2787859,12.8314277 58.191488,12.6467284 58.1889145,12.4178922 L57.7617288,12.4178922 L57.7617288,18.066628 L58.1889145,18.066628 C58.191488,17.837593 58.2787859,17.6528937 58.4508083,17.5121326 C58.6226328,17.3715703 58.8639393,17.2992016 59.1745299,17.2952253 L64.4729792,17.2952253 L64.4729792,19.962728 C64.0159023,20.3591654 63.2048829,20.7957635 62.0399208,21.2725222 C60.8749588,21.7492809 59.3257671,22.0089335 57.3921478,22.0518776 C55.7887166,22.0540645 54.3143517,21.7532572 52.9686572,21.1498533 C52.4124051,20.9003402 51.9012867,20.5969483 51.4351039,20.2396775" id="Fill-6"></path>
        </g>
    </g>
</svg>