<svg xmlns="http://www.w3.org/2000/svg" viewBox="0 0 33 33">
    <g fill="none" fill-rule="evenodd">
        <g fill="#000">
            <g>
                <g>
                    <g>
                        <g>
                            <path d="M31.734 14.981c-.15 1.202-.962 3.428-1.394 4.317-1.156 2.384-2.703 4.214-5.68 4.214-1.591 0-2.902-.504-3.667-1.483-1.12.984-2.506 1.496-4.001 1.496-1.15 0-2.166-.329-2.941-.946-.857.606-2.01.939-3.29.939-1.068 0-2.03-.29-2.786-.833-.831.55-1.924.827-3.203.797-2.132-.05-3.604-1.403-3.645-3.368-.06-2.606 2.138-7.38 3.175-9.032.773-1.272 1.956-1.956 3.404-1.956 1.571 0 2.142.449 2.422 1.02 1.214-1.03 2.82-1.088 3.966-1.088 1.266 0 2.056.332 2.733.87.931-.557 1.998-.85 3.273-.85 1.628 0 2.837.38 3.68 1.215.983-.819 2.214-1.194 3.594-1.194 1.825 0 3.023.659 3.727 1.64.992 1.382.816 2.773.633 4.242zM0 33h33V0H0v33z" transform="translate(-862 -7261) translate(0 6892) translate(694 369) translate(168)"/>
                            <path d="M27.448 11.055c3.19.043 2.621 2.927 2.372 4.18-.282 1.435-.921 3.132-1.613 4.396-1.13 2.064-2.501 2.352-3.702 2.338-1.197-.014-2.545-.464-2.558-2.341-.006-1.349.568-3.251 1.051-4.5.847-2.26 1.714-4.103 4.45-4.073zm-.333 2.213c-.274-.003-.515.052-.73.39-.48.633-1.893 4.551-1.869 5.332.01.281.166.527.504.527.39.001.607-.273.799-.603.443-.766 1.694-4.226 1.727-5.094.01-.25-.03-.544-.431-.552zm-8.414.573c-.493.706-1.564 3.531-1.731 4.695-.114.795.224.957.593.957.594 0 1.256-.636 1.483-1.69 0 0-1.128-.027-.816-1.044.302-.985.875-1.201 1.825-1.24 1.874-.08 1.688 1.327 1.54 2.077-.488 2.435-2.191 4.388-4.604 4.388-1.652 0-2.674-.93-2.674-2.636 0-1.22.594-3.133 1.065-4.253 1.004-2.381 2.056-4.052 4.74-4.052 1.61 0 2.878.589 2.693 2.121-.137 1.125-.692 1.783-1.698 1.865-.28.02-1.43-.009-1.052-1.117.134-.385.19-.689-.374-.689-.463 0-.765.295-.99.618zm-7.892 5.21c.547-.137.96-.236 1.661-.22.803.021 1.315.36 1.315 1.033 0 1.633-1.776 2.112-3.007 2.112-1.354 0-2.543-.78-2.543-2.286 0-1.763.941-4.435 1.824-6.216 1.082-2.186 2.192-2.475 4.098-2.475.837 0 1.802.363 1.802 1.166 0 1.114-.928 1.541-1.85 1.595-.393.022-1 .043-1.361.018 0 0-.306.475-.63 1.32 1.703-.245 2.427.15 2.138 1.151-.388 1.357-1.545 1.448-2.958 1.19-.107.303-.32.937-.489 1.612zm-2.91.838c-.158 1.7-1.692 2.08-3.024 2.049-.966-.023-1.836-.472-1.86-1.614-.04-1.993 1.96-6.607 2.902-8.135.437-.727.966-1.085 1.81-1.085.802 0 1 .418.99.918-.031 1.334-2.158 5.396-2.853 6.983 1.67-.297 2.087.319 2.036.884zm15.705-8.18c-.136-.292-.24-.418-.384-.585-.661-.76-1.723-1.113-3.146-1.113-1.391 0-2.549.442-3.355 1.138-.418-.69-1.416-1.149-2.617-1.149-1.57 0-3.282.226-4.297 1.888-.024-.598-.076-.914-.407-1.27-.405-.433-1.054-.545-1.69-.545-1.154 0-2.024.511-2.649 1.556-.907 1.472-3.11 6.323-3.058 8.672.033 1.514 1.032 2.607 2.827 2.65 1.398.034 2.497-.345 3.194-1.063.628.693 1.585 1.097 2.73 1.097 1.274 0 2.556-.39 3.313-1.24.64.797 1.644 1.263 2.934 1.255 1.688-.01 3.17-.822 4.138-2.07.532 1.472 1.88 2.055 3.352 2.055 3.225 0 4.642-2.252 5.822-5.816.267-.803.62-2.146.681-3.269.098-1.872-.683-3.854-3.668-3.854-1.725 0-2.913.695-3.72 1.662z" transform="translate(-862 -7261) translate(0 6892) translate(694 369) translate(168)"/>
                        </g>
                    </g>
                </g>
            </g>
        </g>
    </g>
</svg>
